<svg xmlns="http://www.w3.org/2000/svg" width="191" height="32.3" viewBox="0 0 191 32.3">
  <g id="Group_32" data-name="Group 32" transform="translate(-698 -2691.4)">
    <g id="copyright_black_24dp" transform="translate(698 2691.4)">
      <path id="Path_214" data-name="Path 214" d="M0,0H32.3V32.3H0Z" fill="none"/>
      <path id="Path_215" data-name="Path 215" d="M13.433,14.537a3.618,3.618,0,0,1,.424-1.231,2.475,2.475,0,0,1,.835-.877A2.511,2.511,0,0,1,15.98,12.1a2.565,2.565,0,0,1,.891.184,2.281,2.281,0,0,1,.736.509,2.725,2.725,0,0,1,.481.75,2.478,2.478,0,0,1,.2.906h2.533a5.065,5.065,0,0,0-.4-1.825,4.246,4.246,0,0,0-.99-1.429,4.622,4.622,0,0,0-1.528-.934,5.466,5.466,0,0,0-1.967-.325,5.53,5.53,0,0,0-2.405.481,4.866,4.866,0,0,0-1.7,1.3,5.319,5.319,0,0,0-1,1.924,8.287,8.287,0,0,0-.34,2.321v.382a8.285,8.285,0,0,0,.325,2.321,5.144,5.144,0,0,0,1,1.91,4.831,4.831,0,0,0,1.7,1.288,5.742,5.742,0,0,0,2.405.481,5.4,5.4,0,0,0,1.868-.325,4.826,4.826,0,0,0,1.528-.891,4.319,4.319,0,0,0,1.047-1.33,3.808,3.808,0,0,0,.424-1.627H18.258a2.015,2.015,0,0,1-.212.821,2.082,2.082,0,0,1-.509.651,2.229,2.229,0,0,1-.736.424,2.81,2.81,0,0,1-.849.141,2.4,2.4,0,0,1-1.259-.325,2.475,2.475,0,0,1-.835-.877,3.7,3.7,0,0,1-.424-1.245,9.537,9.537,0,0,1-.113-1.415v-.382a9.427,9.427,0,0,1,.113-1.429ZM16.15,2A14.15,14.15,0,1,0,30.3,16.15,14.155,14.155,0,0,0,16.15,2Zm0,25.47A11.32,11.32,0,1,1,27.47,16.15,11.335,11.335,0,0,1,16.15,27.47Z" fill="#fff"/>
    </g>
    <text id="_Randomn" data-name="@Randomn" transform="translate(738 2716)" fill="#fff" font-size="25" font-family="Rubik-Regular, Rubik" letter-spacing="0.1em"><tspan x="0" y="0">@Randomn</tspan></text>
  </g>
</svg>

