<svg id="settings_overscan_black_24dp" xmlns="http://www.w3.org/2000/svg" width="25" height="25" viewBox="0 0 25 25">
  <path id="Path_205" data-name="Path 205" d="M0,0H25V25H0Z" fill="none"/>
  <path id="Path_206" data-name="Path 206" d="M12.51,5.639l-2.1,2.639h4.182Zm6.262,4.75v4.222l2.614-2.1Zm-12.545,0L3.614,12.511l2.614,2.1Zm8.364,6.333H10.409l2.1,2.639ZM21.909,3H3.091A2.107,2.107,0,0,0,1,5.111V19.889A2.107,2.107,0,0,0,3.091,22H21.909A2.107,2.107,0,0,0,24,19.889V5.111A2.107,2.107,0,0,0,21.909,3Zm0,16.9H3.091V5.1H21.909Z" transform="translate(0)" fill="#fff"/>
</svg>
